<?xml version="1.0" encoding="UTF-8"?>
<!DOCTYPE svg PUBLIC "-//W3C//DTD SVG 1.1//EN" "http://www.w3.org/Graphics/SVG/1.1/DTD/svg11.dtd">
<svg xmlns="http://www.w3.org/2000/svg" version="1.1" width="16px" height="16px" style="shape-rendering:geometricPrecision; text-rendering:geometricPrecision; image-rendering:optimizeQuality; fill-rule:evenodd; clip-rule:evenodd" xmlns:xlink="http://www.w3.org/1999/xlink">
<g><path style="opacity:0.051" fill="#6990bc" d="M 5.5,2.5 C 5.5,2.83333 5.5,3.16667 5.5,3.5C 5.16667,3.5 4.83333,3.5 4.5,3.5C 3.32068,1.59096 3.65401,1.25763 5.5,2.5 Z"/></g>
<g><path style="opacity:0.551" fill="#6a88bb" d="M 6.5,2.5 C 7.79307,2.12541 9.12641,1.79208 10.5,1.5C 10.4431,2.60895 10.1098,3.60895 9.5,4.5C 8.83333,4.5 8.16667,4.5 7.5,4.5C 7.67158,3.50838 7.33825,2.84171 6.5,2.5 Z"/></g>
<g><path style="opacity:0.588" fill="#6a86bb" d="M 5.5,2.5 C 5.83333,2.5 6.16667,2.5 6.5,2.5C 7.33825,2.84171 7.67158,3.50838 7.5,4.5C 6.83333,4.5 6.16667,4.5 5.5,4.5C 5.5,4.16667 5.5,3.83333 5.5,3.5C 5.5,3.16667 5.5,2.83333 5.5,2.5 Z"/></g>
<g><path style="opacity:0.202" fill="#76217c" d="M 10.5,1.5 C 11.3382,1.84171 11.6716,2.50838 11.5,3.5C 11.1667,4.16667 10.8333,4.83333 10.5,5.5C 9.83333,5.5 9.5,5.16667 9.5,4.5C 10.1098,3.60895 10.4431,2.60895 10.5,1.5 Z"/></g>
<g><path style="opacity:0.365" fill="#66c6be" d="M 3.5,3.5 C 3.83333,3.5 4.16667,3.5 4.5,3.5C 4.83333,3.5 5.16667,3.5 5.5,3.5C 5.5,3.83333 5.5,4.16667 5.5,4.5C 5.5,5.16667 5.5,5.83333 5.5,6.5C 5.16667,6.5 4.83333,6.5 4.5,6.5C 4.5,6.16667 4.5,5.83333 4.5,5.5C 4.16667,4.83333 3.83333,4.16667 3.5,3.5 Z"/></g>
<g><path style="opacity:0.545" fill="#752e85" d="M 11.5,3.5 C 12.3764,3.36912 13.0431,3.70245 13.5,4.5C 12.2086,5.52717 12.2086,6.52717 13.5,7.5C 12.5,7.5 11.5,7.5 10.5,7.5C 10.5,7.16667 10.5,6.83333 10.5,6.5C 10.5,6.16667 10.5,5.83333 10.5,5.5C 10.8333,4.83333 11.1667,4.16667 11.5,3.5 Z"/></g>
<g><path style="opacity:0.9" fill="#61c0bf" d="M 3.5,3.5 C 3.83333,4.16667 4.16667,4.83333 4.5,5.5C 3.83333,5.5 3.16667,5.5 2.5,5.5C 2.32842,4.50838 2.66175,3.84171 3.5,3.5 Z"/></g>
<g><path style="opacity:0.349" fill="#5fc9c3" d="M 2.5,5.5 C 3.16667,5.5 3.83333,5.5 4.5,5.5C 4.5,5.83333 4.5,6.16667 4.5,6.5C 4.5,6.83333 4.5,7.16667 4.5,7.5C 3.5,7.5 2.5,7.5 1.5,7.5C 1.83333,6.83333 2.16667,6.16667 2.5,5.5 Z"/></g>
<g><path style="opacity:0.369" fill="#ac5979" d="M 4.5,6.5 C 4.83333,6.5 5.16667,6.5 5.5,6.5C 5.83333,6.5 6.16667,6.5 6.5,6.5C 6.5,7.16667 6.5,7.83333 6.5,8.5C 6.16667,8.5 5.83333,8.5 5.5,8.5C 4.83333,8.5 4.5,8.16667 4.5,7.5C 4.5,7.16667 4.5,6.83333 4.5,6.5 Z"/></g>
<g><path style="opacity:0.259" fill="#678cc1" d="M 6.5,6.5 C 7.83333,6.5 9.16667,6.5 10.5,6.5C 10.5,6.83333 10.5,7.16667 10.5,7.5C 10.5,7.83333 10.5,8.16667 10.5,8.5C 9.16667,8.5 7.83333,8.5 6.5,8.5C 6.5,7.83333 6.5,7.16667 6.5,6.5 Z"/></g>
<g><path style="opacity:0.4" fill="#61c3c3" d="M 10.5,8.5 C 10.5,8.16667 10.5,7.83333 10.5,7.5C 11.5,7.5 12.5,7.5 13.5,7.5C 13.1667,8.16667 12.8333,8.83333 12.5,9.5C 12.5,10.1667 12.1667,10.5 11.5,10.5C 11.6716,9.50838 11.3382,8.84171 10.5,8.5 Z"/></g>
<g><path style="opacity:0.378" fill="#763285" d="M 1.5,7.5 C 2.5,7.5 3.5,7.5 4.5,7.5C 4.5,8.16667 4.83333,8.5 5.5,8.5C 5.5,9.16667 5.5,9.83333 5.5,10.5C 5.5,11.1667 5.5,11.8333 5.5,12.5C 5.10343,13.525 4.43677,13.6917 3.5,13C 3.83333,12.6667 4.16667,12.3333 4.5,12C 2.88344,10.9085 1.88344,9.40849 1.5,7.5 Z"/></g>
<g><path style="opacity:0.624" fill="#63bebf" d="M 10.5,8.5 C 11.3382,8.84171 11.6716,9.50838 11.5,10.5C 11.5,10.8333 11.5,11.1667 11.5,11.5C 11.5393,13.2239 11.206,13.5573 10.5,12.5C 10.1667,11.8333 9.83333,11.1667 9.5,10.5C 9.83333,9.83333 10.1667,9.16667 10.5,8.5 Z"/></g>
<g><path style="opacity:0.158" fill="#61c3c0" d="M 12.5,9.5 C 13.7574,10.6226 13.4241,11.2893 11.5,11.5C 11.5,11.1667 11.5,10.8333 11.5,10.5C 12.1667,10.5 12.5,10.1667 12.5,9.5 Z"/></g>
<g><path style="opacity:0.616" fill="#6a87bc" d="M 8.5,10.5 C 8.5,11.1667 8.5,11.8333 8.5,12.5C 7.83333,13.8333 7.16667,13.8333 6.5,12.5C 7.33825,12.1583 7.67158,11.4916 7.5,10.5C 7.83333,9.16667 8.16667,9.16667 8.5,10.5 Z"/></g>
<g><path style="opacity:0.357" fill="#6a83bb" d="M 8.5,10.5 C 8.83333,10.5 9.16667,10.5 9.5,10.5C 9.83333,11.1667 10.1667,11.8333 10.5,12.5C 9.83333,12.5 9.16667,12.5 8.5,12.5C 8.5,11.8333 8.5,11.1667 8.5,10.5 Z"/></g>
<g><path style="opacity:0.682" fill="#6a8dbe" d="M 5.5,10.5 C 6.16667,10.5 6.83333,10.5 7.5,10.5C 7.67158,11.4916 7.33825,12.1583 6.5,12.5C 6.16667,12.5 5.83333,12.5 5.5,12.5C 5.5,11.8333 5.5,11.1667 5.5,10.5 Z"/></g>
</svg>
